<svg id="Calque_1" data-name="Calque 1" xmlns="http://www.w3.org/2000/svg" viewBox="0 0 405.9 467.57">
  <g>
    <path d="M459,16.43c-21.23,45.51-62.2,13.71-94.89,12.6-92.46-.8-95.25,47.35-141.3,77C213.57,96,199,89.67,176,90.93c-15.93.88-30.35,6.34-41,15.89-12.34,10.74-21.33,25.55-21.94,39.84,21-5.31,41.3-4.38,45.87,5.46,11.51,24.82-21.37,16-44.74,23.4q-1.87.6-3.69,1.23c-2.76,7.73-6,15.13-6,20.48,0,16.94,13.68,6.16,19.65,20.88.85,2.1,3.77,8.62,12.23,16.83,1.37,1.33,46-35.11,47.49-33.9-14.83,31.6-38.79,42.74-41.13,44-21.23,11.2-46.72,20.42-55.69,38.13l-.52-.17S59,348.4,53.05,380.89c.58,16.74,25.67,12.54,25.67,12.54l39.53-11.78,4.69,16.94L242.42,248c-26.12-15.67-18-38.59-21.93-58.78,13.79-22.47,21.9-34.06,14.6-56.68,7.12-7.32,16.21-14.78,26.61-16.78,21.27-4.08,60,16.2,81,16.47,27.78.36,42.71-14.29,54.35-31.9-10.67,3.5-14.71,3.5-8.71-15.07-14.17,5.18-23.31,22.6-49,18.53-23.87-3.79-60.08-11-80.07-4.36C293.21,82,319.83,64.14,356.06,59.93c42.45,3,80.56,32.92,102.89-17Z" transform="translate(-53.05 -16.43)"/>
    <path d="M133.63,152c-5.3,0-10.6,1.2-10.6,3.59,2.16,2.94,9.78,5.33,13.46,5.42,5.85,0,7.75-.65,7.75-5.42C144.24,153.2,138.94,152,133.63,152Z" transform="translate(-53.05 -16.43)"/>
    <path d="M261.74,244.35l-170.53,215s-10.25,8.43,0,16.77c10.47,8.57,18.62-3.65,18.62-3.65l170.52-215Z" transform="translate(-53.05 -16.43)"/>
    <polygon points="214.9 190.95 203.19 205.12 252.27 239.21 263.97 225.04 214.9 190.95"/>
    <polygon points="279.81 139.69 240.81 188.76 257.35 200.47 296.36 151.4 279.81 139.69"/>
    <path d="M289.16,269.39s-20.69,26.85-31.22,40.12C215.79,362.63,132.22,466.21,130,467.67l.07,16.33h109.3l15.36-115.26,44.67,9.67s17.91,1.92,17.18-13.82c-4.62-21.77-19.23-74.86-27.42-95.2Z" transform="translate(-53.05 -16.43)"/>
  </g>
</svg>